<svg xmlns="http://www.w3.org/2000/svg" viewBox="0 0 32 32" fill="none">
  <rect width="32" height="32" rx="8" fill="url(#g)"/>
  <path d="M8 22V10h4.5c2.2 0 3.5 1.2 3.5 3s-1.3 3-3.5 3H11v6H8zm3-8.5h1.4c.9 0 1.4-.4 1.4-1.1s-.5-1.1-1.4-1.1H11v2.2zm7.5 8.5 3.5-12h3.2l3.5 12h-3.1l-.6-2.2h-3.3l-.6 2.2H18.5zm4.6-4.7 1-3.6 1 3.6h-2z" fill="white"/>
  <defs>
    <linearGradient id="g" x1="0" y1="0" x2="32" y2="32" gradientUnits="userSpaceOnUse">
      <stop stop-color="#8B5CF6"/>
      <stop offset="1" stop-color="#06B6D4"/>
    </linearGradient>
  </defs>
</svg>
